<svg width="120" height="24" fill="none" xmlns="http://www.w3.org/2000/svg"><path d="M18.38 23.56V.44H0v23.12h4.78V5.1h8.82v18.46h4.78ZM37.84 14.65a8.55 8.55 0 0 0 2.24-6c0-4.91-3.3-8.21-8.22-8.21h-9.52v23.12h4.78v-6.55h4.74c2.43 0 4.5-.82 5.98-2.36ZM27.12 12.4V5.04h4.54c2.14 0 3.52 1.44 3.52 3.67 0 2.25-1.38 3.7-3.52 3.7h-4.54ZM119.75 23.56V.44h-4.76l-10.62 16.5.96-.08V.44h-4.72v23.12h4.76l10.97-17.05-1.3.38v16.67h4.71ZM54.18 0c-3.27 0-6.3 1.23-8.54 3.46A11.96 11.96 0 0 0 42.18 12c0 3.27 1.23 6.3 3.46 8.54A11.96 11.96 0 0 0 54.18 24c3.27 0 6.3-1.23 8.54-3.46A11.96 11.96 0 0 0 66.18 12c0-3.27-1.23-6.3-3.46-8.54A11.96 11.96 0 0 0 54.18 0Zm0 19.37c-4 0-7.14-3.24-7.14-7.37a7.18 7.18 0 0 1 7.14-7.37c4 0 7.14 3.24 7.14 7.37a7.18 7.18 0 0 1-7.14 7.37ZM94.77 18.65a9.47 9.47 0 0 0 2.82-6.85c0-2.67-1-5.1-2.82-6.89a10.29 10.29 0 0 0-7.27-2.8h-2.06V0h-4.59v2.11h-2.1c-2.85 0-5.43 1-7.28 2.8a9.52 9.52 0 0 0-2.82 6.89c0 2.65 1 5.08 2.82 6.85 1.85 1.8 4.43 2.8 7.28 2.8h2.1V24h4.59v-2.56h2.06c2.84 0 5.42-.99 7.27-2.79Zm-13.92-1.79h-2.32a4.83 4.83 0 0 1-5.01-5.06 4.82 4.82 0 0 1 5.01-5.07h2.32v10.13Zm4.58-10.13h2.28a4.83 4.83 0 0 1 5.02 5.07 4.82 4.82 0 0 1-5.02 5.06h-2.28V6.73Z" fill="#e01935"/></svg>
